                    <svg width="24" height="20" viewBox="0 0 24 20" xmlns="http://www.w3.org/2000/svg"> <path d="M1 -1.88637e-05C0.734784 -1.88637e-05 0.48043 0.105338 0.292893 0.292875C0.105357 0.480411 0 0.734765 0 0.999981C0 1.2652 0.105357 1.51955 0.292893 1.70709C0.48043 1.89462 0.734784 1.99998 1 1.99998H3.22L5.844 12.5C6.067 13.39 6.864 14 7.781 14H19.251C20.154 14 20.921 13.4 21.158 12.53L23.75 2.99998H7L7.5 4.99998H21.156L19.25 12H7.78L5.157 1.49998C5.04865 1.06921 4.79888 0.687259 4.44768 0.415295C4.09648 0.14333 3.66418 -0.00291397 3.22 -1.88637e-05H1ZM18 14C16.355 14 15 15.355 15 17C15 18.645 16.355 20 18 20C19.645 20 21 18.645 21 17C21 15.355 19.645 14 18 14ZM9 14C7.355 14 6 15.355 6 17C6 18.645 7.355 20 9 20C10.645 20 12 18.645 12 17C12 15.355 10.645 14 9 14ZM9 16C9.564 16 10 16.436 10 17C10 17.564 9.564 18 9 18C8.436 18 8 17.564 8 17C8 16.436 8.436 16 9 16ZM18 16C18.564 16 19 16.436 19 17C19 17.564 18.564 18 18 18C17.436 18 17 17.564 17 17C17 16.436 17.436 16 18 16Z"/> </svg>
